<?xml version="1.0" encoding="UTF-8" standalone="no"?>
<svg
   viewBox="0 0 640 640"
   version="1.1"
   id="svg4"
   sodipodi:docname="book-solid-full.svg"
   inkscape:version="1.2.2 (b0a8486541, 2022-12-01)"
   xmlns:inkscape="http://www.inkscape.org/namespaces/inkscape"
   xmlns:sodipodi="http://sodipodi.sourceforge.net/DTD/sodipodi-0.dtd"
   xmlns="http://www.w3.org/2000/svg"
   xmlns:svg="http://www.w3.org/2000/svg">
  <defs
     id="defs8" />
  <sodipodi:namedview
     id="namedview6"
     pagecolor="#ffffff"
     bordercolor="#000000"
     borderopacity="0.25"
     inkscape:showpageshadow="2"
     inkscape:pageopacity="0.0"
     inkscape:pagecheckerboard="0"
     inkscape:deskcolor="#d1d1d1"
     showgrid="false"
     inkscape:zoom="1.1609375"
     inkscape:cx="173.56662"
     inkscape:cy="324.30686"
     inkscape:window-width="960"
     inkscape:window-height="1052"
     inkscape:window-x="960"
     inkscape:window-y="0"
     inkscape:window-maximized="0"
     inkscape:current-layer="svg4" />
  <!--!Font Awesome Free 7.1.0 by @fontawesome - https://fontawesome.com License - https://fontawesome.com/license/free Copyright 2025 Fonticons, Inc.-->
  <path
     d="M480 576L192 576C139 576 96 533 96 480L96 160C96 107 139 64 192 64L496 64C522.5 64 544 85.5 544 112L544 400C544 420.9 530.6 438.7 512 445.3L512 512C529.7 512 544 526.3 544 544C544 561.7 529.7 576 512 576L480 576zM192 448C174.3 448 160 462.3 160 480C160 497.7 174.3 512 192 512L448 512L448 448L192 448zM224 216C224 229.3 234.7 240 248 240L424 240C437.3 240 448 229.3 448 216C448 202.7 437.3 192 424 192L248 192C234.7 192 224 202.7 224 216zM248 288C234.7 288 224 298.7 224 312C224 325.3 234.7 336 248 336L424 336C437.3 336 448 325.3 448 312C448 298.7 437.3 288 424 288L248 288z"
     id="path2"
     style="fill:#042542;fill-opacity:1" />
</svg>
