<?xml version="1.0" encoding="UTF-8" standalone="no"?>
<!-- Uploaded to: SVG Repo, www.svgrepo.com, Generator: SVG Repo Mixer Tools -->

<svg
   width="800px"
   height="800px"
   viewBox="0 0 36 36"
   aria-hidden="true"
   role="img"
   class="iconify iconify--twemoji"
   preserveAspectRatio="xMidYMid meet"
   version="1.1"
   id="svg6"
   sodipodi:docname="chess-pawn-svgrepo-com.svg"
   inkscape:version="1.2.2 (b0a8486541, 2022-12-01)"
   xmlns:inkscape="http://www.inkscape.org/namespaces/inkscape"
   xmlns:sodipodi="http://sodipodi.sourceforge.net/DTD/sodipodi-0.dtd"
   xmlns="http://www.w3.org/2000/svg"
   xmlns:svg="http://www.w3.org/2000/svg">
  <defs
     id="defs10" />
  <sodipodi:namedview
     id="namedview8"
     pagecolor="#ffffff"
     bordercolor="#000000"
     borderopacity="0.25"
     inkscape:showpageshadow="2"
     inkscape:pageopacity="0.0"
     inkscape:pagecheckerboard="0"
     inkscape:deskcolor="#d1d1d1"
     showgrid="false"
     inkscape:zoom="0.92875"
     inkscape:cx="401.07672"
     inkscape:cy="401.07672"
     inkscape:window-width="960"
     inkscape:window-height="1052"
     inkscape:window-x="960"
     inkscape:window-y="0"
     inkscape:window-maximized="0"
     inkscape:current-layer="svg6" />
  <path
     fill="#31373D"
     d="M27.819 33.653C28.46 32.997 29 32.072 29 30.801c0-3.149-3.645-6.753-5-9.801c-1.333-3-2.104-5.875-.083-6.688l.17-.073c.578-.218.913-.47.913-.739c0-.46-.97-.872-2.494-1.147A6.98 6.98 0 0 0 25 7a7 7 0 1 0-14 0a6.98 6.98 0 0 0 2.494 5.353C11.97 12.628 11 13.04 11 13.5c0 .269.335.521.914.739c.056.024.106.048.169.073C14.104 15.125 13.333 18 12 21c-1.355 3.048-5 6.652-5 9.801c0 1.271.54 2.196 1.181 2.852C7.432 34.058 7 34.515 7 35c0 .351.233.687.639 1H28.36c.407-.313.64-.649.64-1c0-.485-.432-.942-1.181-1.347z"
     id="path2" />
  <path
     fill="#66757F"
     d="M22.001 4.75a.752.752 0 0 1-.672-.415c-.03-.058-.866-1.585-3.329-1.585s-3.298 1.527-3.333 1.593a.752.752 0 0 1-1.008.32a.746.746 0 0 1-.33-.999C13.378 3.566 14.576 1.25 18 1.25c3.424 0 4.621 2.316 4.671 2.415a.749.749 0 0 1-.67 1.085zM22 14a.504.504 0 0 1-.224-.053c-.004-.001-.988-.447-3.776-.447c-2.789 0-3.772.446-3.782.45a.502.502 0 0 1-.665-.234a.498.498 0 0 1 .224-.664c.113-.056 1.192-.552 4.223-.552c3.03 0 4.11.496 4.224.553A.5.5 0 0 1 22 14zM10 34.5a.5.5 0 0 1-.049-.997C10 33.497 15.01 33 18 33s7.999.497 8.05.503a.498.498 0 0 1 .447.547a.498.498 0 0 1-.547.447C25.9 34.492 20.94 34 18 34c-2.941 0-7.9.492-7.95.497L10 34.5z"
     id="path4" />
  <path
     style="fill:#3ca900;fill-opacity:0.89999998;stroke-width:1.07672"
     d="m 164.97926,794.68813 c -8.93679,-8.9368 -10.898,-18.08954 -5.75617,-26.86341 3.66115,-6.24728 9.6925,-11.37728 23.10834,-19.65494 0.20153,-0.12435 -2.24445,-3.30377 -5.43552,-7.06537 -21.08156,-24.85077 -26.10926,-57.57195 -14.29335,-93.02382 8.21675,-24.65312 20.65181,-46.93058 56.32537,-100.9071 37.16587,-56.23449 41.75855,-64.22699 54.4344,-94.7306 19.45145,-46.80868 26.43386,-79.87415 21.64301,-102.49141 -3.64636,-17.2142 -11.43064,-26.12628 -29.59447,-33.88219 -11.97482,-5.11322 -20.45798,-11.74029 -20.45798,-15.98185 0,-3.63503 5.7239,-9.21359 13.12195,-12.78875 8.73194,-4.21979 14.83259,-6.1897 29.26657,-9.45024 6.43616,-1.45389 11.92885,-2.87017 12.20597,-3.14729 0.27713,-0.27712 -3.5493,-4.5401 -8.50316,-9.47331 -47.11045,-46.9139 -59.2545,-117.42619 -30.47243,-176.93268 21.08813,-43.599383 60.16788,-73.979442 108.9937,-84.73021 15.14898,-3.33559187 45.72004,-3.33559187 60.86902,0 63.64531,14.013813 109.58481,60.885333 122.08732,124.56425 2.63457,13.41862 2.62567,41.58717 -0.0173,54.87345 -4.12575,20.73997 -11.70746,39.81963 -22.26402,56.0283 -6.94451,10.66268 -18.89148,24.99849 -25.29048,30.34739 -2.64848,2.21384 -4.81541,4.35973 -4.81541,4.76862 0,0.4089 5.69314,2.06199 12.65141,3.67354 21.66669,5.01806 34.03798,10.28405 39.55033,16.83511 3.63744,4.32287 3.42057,6.57136 -1.11843,11.5955 -2.78602,3.08378 -6.76128,5.50463 -14.5917,8.88601 -17.93353,7.74418 -25.95099,15.38719 -30.05347,28.6498 -7.34539,23.74635 -1.04768,57.84981 20.06494,108.65596 12.67585,30.50361 17.26853,38.49611 54.43439,94.7306 28.34186,42.88316 41.04252,64.18489 48.71728,81.70934 9.94939,22.71832 13.65623,37.59503 13.68312,54.91466 0.0359,23.09066 -6.18161,40.58369 -20.36837,57.30692 -3.19107,3.7616 -5.63705,6.94102 -5.43552,7.06537 13.41584,8.27766 19.44719,13.40766 23.10835,19.65494 5.14182,8.77387 3.18061,17.92661 -5.75618,26.86341 l -4.77352,4.77351 H 400 169.75278 Z M 265.4105,763.40292 c 66.2911,-5.60733 83.40076,-6.41652 135.12786,-6.39072 52.15024,0.0261 69.12097,0.85142 135.12786,6.57232 43.21137,3.74518 46.41166,3.77352 49.96115,0.44247 5.28148,-4.95645 4.63986,-14.08768 -1.26158,-17.95445 -2.87185,-1.8817 -19.44576,-3.71043 -67.00374,-7.39301 -89.04079,-6.89474 -127.88876,-7.30578 -204.57605,-2.16455 -28.25499,1.89426 -85.95966,6.65778 -91.72724,7.57208 -8.16913,1.29502 -12.70549,10.04981 -8.73238,16.85273 3.08788,5.28717 6.08639,6.43634 14.8607,5.69531 4.14536,-0.35008 21.34589,-1.80458 38.22342,-3.23218 z m 51.81617,-453.37917 c 5.79499,-2.07317 21.18022,-5.34336 32.70604,-6.95178 13.60623,-1.89874 69.34174,-2.60566 87.00907,-1.10356 18.12836,1.54129 35.41547,4.50565 44.35028,7.6051 7.98988,2.77167 12.34866,2.15107 16.08584,-2.29031 3.68422,-4.37846 3.73682,-10.39461 0.12837,-14.68301 -4.33604,-5.15309 -23.96065,-10.23715 -51.74584,-13.40555 -15.94051,-1.81774 -75.84045,-1.77749 -92.05922,0.0618 -27.42687,3.11043 -46.84874,8.16364 -51.18545,13.31753 -5.97887,7.10548 -0.95842,18.70765 8.25061,19.06702 0.96189,0.0376 3.86902,-0.69024 6.4603,-1.61728 z m 2.95017,-206.90309 c 1.56088,-1.15278 5.59388,-5.745333 8.96223,-10.205685 9.87899,-13.081712 23.00443,-21.763562 41.47025,-27.430566 8.83613,-2.711731 10.80753,-2.9067 29.39068,-2.9067 18.66694,0 20.52595,0.186001 29.5696,2.958553 18.80799,5.766048 33.08341,15.469115 42.03648,28.572403 7.75975,11.356785 15.96868,14.554075 25.23276,9.827905 8.99413,-4.588471 11.59568,-16.559169 5.63594,-25.933037 C 482.17827,46.079929 444.43865,27.468953 400,27.468953 c -43.68923,0 -81.29477,18.132081 -101.36704,48.875635 -3.53782,5.41868 -4.15113,7.229311 -4.15113,12.255145 0,7.43362 2.73993,12.127727 8.90923,15.263497 5.44182,2.766 12.45518,2.45574 16.78578,-0.74257 z"
     id="path931"
     transform="scale(0.045)" />
</svg>
