<?xml version="1.0" encoding="UTF-8" standalone="no"?>
<!-- Uploaded to: SVG Repo, www.svgrepo.com, Generator: SVG Repo Mixer Tools -->

<svg
   width="800px"
   height="800px"
   viewBox="0 0 36 36"
   aria-hidden="true"
   role="img"
   class="iconify iconify--twemoji"
   preserveAspectRatio="xMidYMid meet"
   version="1.1"
   id="svg6"
   sodipodi:docname="chess-pawn2.svg"
   inkscape:version="1.2.2 (b0a8486541, 2022-12-01)"
   xmlns:inkscape="http://www.inkscape.org/namespaces/inkscape"
   xmlns:sodipodi="http://sodipodi.sourceforge.net/DTD/sodipodi-0.dtd"
   xmlns="http://www.w3.org/2000/svg"
   xmlns:svg="http://www.w3.org/2000/svg">
  <defs
     id="defs10" />
  <sodipodi:namedview
     id="namedview8"
     pagecolor="#ffffff"
     bordercolor="#000000"
     borderopacity="0.25"
     inkscape:showpageshadow="2"
     inkscape:pageopacity="0.0"
     inkscape:pagecheckerboard="0"
     inkscape:deskcolor="#d1d1d1"
     showgrid="false"
     inkscape:zoom="0.92875"
     inkscape:cx="404.30686"
     inkscape:cy="404.30686"
     inkscape:window-width="1920"
     inkscape:window-height="1052"
     inkscape:window-x="0"
     inkscape:window-y="0"
     inkscape:window-maximized="1"
     inkscape:current-layer="svg6" />
  <path
     style="fill:#3ca900;fill-opacity:0.9;stroke-width:0.0369418"
     d="m 11.040703,31.888219 c -0.286793,-0.327814 -0.34973,-0.66355 -0.184723,-0.985388 0.117491,-0.229159 0.311043,-0.417334 0.741572,-0.72097 0.0064,-0.0045 -0.07203,-0.121186 -0.174432,-0.259168 -0.676531,-0.911561 -0.837875,-2.111819 -0.458689,-3.412242 0.263684,-0.90431 0.662739,-1.721479 1.807541,-3.701413 1.192693,-2.062759 1.340077,-2.355934 1.746859,-3.474849 0.624218,-1.717008 0.848292,-2.929895 0.694547,-3.759528 -0.117015,-0.631441 -0.366821,-0.958347 -0.949717,-1.242845 -0.384286,-0.18756 -0.656519,-0.43065 -0.656519,-0.586236 0,-0.133339 0.183685,-0.337968 0.421097,-0.46911 0.280218,-0.154787 0.475994,-0.227047 0.939196,-0.346648 0.206543,-0.05333 0.382809,-0.105282 0.391703,-0.115447 0.0088,-0.01017 -0.113901,-0.166538 -0.272875,-0.347493 C 13.574436,10.746015 13.18472,8.1595245 14.108369,5.9767438 14.78511,4.377458 16.039222,3.2630754 17.606094,2.8687222 c 0.486148,-0.1223542 1.467205,-0.1223542 1.953353,0 2.042447,0.5140462 3.516696,2.2333584 3.917913,4.5691894 0.08455,0.4922137 0.08426,1.5254757 -5.54e-4,2.0128344 -0.132399,0.760772 -0.375705,1.460639 -0.714476,2.055197 -0.222857,0.391122 -0.606248,0.916979 -0.811599,1.113184 -0.08499,0.08121 -0.154532,0.159922 -0.154532,0.174921 0,0.015 0.1827,0.07564 0.405997,0.134749 0.695308,0.18407 1.092316,0.377234 1.269213,0.617535 0.116729,0.15857 0.10977,0.241047 -0.03588,0.425339 -0.08941,0.113119 -0.216977,0.201918 -0.468263,0.325951 -0.575507,0.284068 -0.832796,0.564424 -0.964449,1.050915 -0.235722,0.871049 -0.03363,2.122011 0.643905,3.985652 0.406783,1.118915 0.554166,1.41209 1.74686,3.474849 0.90952,1.573014 1.317097,2.354391 1.563389,2.997212 0.319286,0.83334 0.438243,1.379037 0.439106,2.014346 0.0011,0.846997 -0.198374,1.488666 -0.653642,2.102097 -0.102406,0.137982 -0.180899,0.254607 -0.174432,0.259168 0.430528,0.303636 0.624081,0.491811 0.741571,0.72097 0.165006,0.321838 0.10207,0.657574 -0.184721,0.985388 l -0.153189,0.175099 h -7.388892 -7.388881 z m 3.222945,-1.147585 c 2.127353,-0.205685 2.676421,-0.235367 4.3364,-0.23442 1.673557,9.53e-4 2.218166,0.03123 4.336398,0.241082 1.386699,0.137378 1.4894,0.138417 1.603308,0.01623 0.169488,-0.181809 0.148898,-0.516755 -0.04048,-0.658594 -0.09216,-0.06903 -0.624035,-0.136103 -2.150223,-0.271186 -2.857414,-0.252909 -4.104088,-0.267985 -6.565066,-0.07941 -0.906733,0.06948 -2.758538,0.244216 -2.943626,0.277755 -0.262156,0.04751 -0.407733,0.368639 -0.280231,0.618181 0.09909,0.193941 0.195318,0.236094 0.476896,0.208912 0.133029,-0.01284 0.685012,-0.06619 1.22663,-0.11856 z m 1.662837,-16.630577 c 0.185968,-0.07604 0.679695,-0.196002 1.049572,-0.255001 0.436639,-0.06965 2.225252,-0.09558 2.792215,-0.04048 0.581759,0.05654 1.136521,0.165274 1.423249,0.278965 0.256403,0.10167 0.396282,0.07891 0.516212,-0.08402 0.11823,-0.160608 0.119919,-0.381288 0.0041,-0.538593 -0.139148,-0.189023 -0.768924,-0.375513 -1.66058,-0.491734 -0.511549,-0.06668 -2.433802,-0.0652 -2.95428,0.0023 -0.880158,0.114094 -1.503427,0.299452 -1.642597,0.488505 -0.191867,0.260639 -0.03077,0.686222 0.264771,0.699405 0.03087,0.0014 0.124161,-0.02532 0.207317,-0.05933 z m 0.09467,-7.5894937 c 0.0501,-0.042285 0.179515,-0.2107467 0.287608,-0.3743586 0.317027,-0.4798554 0.738237,-0.7983176 1.330825,-1.0061913 0.283561,-0.09947 0.346826,-0.1066217 0.943179,-0.1066217 0.599042,0 0.6587,0.00683 0.94892,0.1085239 0.603569,0.2115065 1.061682,0.5674285 1.348995,1.0480753 0.249021,0.4165826 0.512454,0.5338637 0.809748,0.3605011 0.288631,-0.1683113 0.372117,-0.6074132 0.180864,-0.9512597 -0.651337,-1.1710021 -1.862443,-1.8536785 -3.288527,-1.8536785 -1.402034,0 -2.608837,0.6651098 -3.252978,1.7928261 -0.113533,0.1987646 -0.133215,0.2651812 -0.133215,0.4495357 0,0.2726755 0.08793,0.4448618 0.285908,0.5598863 0.174633,0.1014606 0.3997,0.090081 0.538673,-0.027239 z"
     id="path931" />
  <path
     style="fill:#ffffff;fill-opacity:0.9;stroke:#000000;stroke-width:7.00942"
     d="m 245.70246,707.89571 c -8.97729,-10.48795 -7.58684,-19.19339 4.88346,-30.57479 l 7.61532,-6.95037 -4.41879,-6.78688 c -10.40526,-15.98161 -13.67791,-27.11947 -13.54179,-46.08703 0.19748,-27.51904 8.62331,-48.49505 44.76422,-111.44011 27.40954,-47.73803 31.62267,-56.47219 41.65428,-86.35271 11.58999,-34.52239 15.29575,-59.01175 11.41834,-75.45777 -3.1124,-13.20128 -7.80634,-19.14884 -20.74759,-26.28872 -8.75307,-4.8292 -14.23435,-9.71952 -14.23435,-12.69966 0,-2.99545 9.13791,-10.41387 15.99236,-12.98305 3.34417,-1.25347 9.83536,-3.28579 14.42487,-4.51628 4.5895,-1.23048 8.34455,-2.58207 8.34455,-3.00354 0,-0.42147 -2.71837,-4.08267 -6.04081,-8.136 -21.13596,-25.78552 -31.0332,-51.44046 -32.36204,-83.88663 -2.48592,-60.69868 34.06194,-114.29797 87.39342,-128.166885 10.06993,-2.618696 33.4888,-2.689879 43.96115,-0.133621 36.29165,8.858651 67.30465,38.975906 80.4074,78.085016 5.83865,17.42717 6.81967,23.83146 6.86753,44.83191 0.0474,20.78079 -0.6097,25.41279 -6.03304,42.53028 -5.58934,17.64142 -15.78881,35.76271 -27.11198,48.16954 -2.97711,3.26203 -4.85265,6.16265 -4.30686,6.66078 0.53174,0.48531 6.53882,2.61964 13.34905,4.74296 13.55086,4.22491 21.22244,8.43763 23.63213,12.97716 2.37192,4.4684 -0.22608,7.74596 -11.62325,14.66356 -11.84257,7.18794 -16.5693,11.62353 -19.40101,18.20603 -8.15204,18.94993 -4.79645,46.06278 11.40577,92.15736 9.05633,25.76487 10.4047,28.49411 38.23634,77.39449 29.34947,51.56722 36.76035,67.04535 42.48933,88.74177 3.81895,14.46288 4.03953,34.47555 0.51675,46.88465 -2.78724,9.81816 -4.13725,12.65687 -10.69689,22.49271 l -4.83499,7.24982 8.12759,7.82421 c 12.28041,11.82199 13.39346,19.23491 4.45594,29.67638 l -3.87525,4.52735 H 412.92059 249.42756 Z m 83.23428,-25.4746 c 27.88063,-2.78458 32.75345,-2.9589 83.44549,-2.98529 52.94337,-0.0276 54.44034,0.0309 90.30412,3.5285 20.05757,1.95608 37.87219,3.24817 39.58803,2.87131 5.43964,-1.19475 7.8231,-8.45869 4.73494,-14.4305 -1.87514,-3.62615 -2.6189,-3.84228 -20.56311,-5.97551 -50.96149,-6.05837 -116.65403,-8.58493 -156.71222,-6.02723 -20.99282,1.34039 -75.00722,6.05655 -82.25081,7.18157 -9.7468,1.5138 -13.16957,11.34434 -6.33091,18.183 2.23467,2.23467 1.62002,2.26484 47.78447,-2.34585 z m 36.06999,-371.29064 c 10.38247,-2.90424 11.86351,-3.02854 41.45357,-3.47905 32.45723,-0.49414 42.87721,0.28082 57.22953,4.25639 12.39201,3.43257 15.41678,3.602 18.00995,1.00883 4.27737,-4.27737 4.29044,-11.09812 0.0289,-15.06837 -2.55709,-2.38228 -12.93135,-5.88512 -24.66272,-8.32729 -10.84646,-2.25795 -61.44529,-3.31257 -76.13843,-1.58693 -12.41774,1.45841 -27.34591,4.86637 -32.51466,7.4228 -5.5878,2.76369 -8.06265,6.72193 -7.17181,11.4705 0.40502,2.15893 1.72488,4.91382 2.93302,6.12196 2.68252,2.68252 5.67439,2.42131 20.83266,-1.81884 z m -6.4603,-168.19252 c 11.72189,-16.13415 18.77389,-22.27252 31.39686,-27.32918 5.63782,-2.25847 8.01432,-2.5208 22.9773,-2.5363 14.97755,-0.0155 17.32244,0.2385 22.86465,2.47686 9.38768,3.79145 18.94338,10.69373 23.85761,17.23285 10.81731,14.39404 13.78293,16.43031 20.63542,14.16879 5.11788,-1.68905 8.01244,-6.83145 8.01244,-14.23466 0,-5.26828 -0.57692,-6.80748 -5.19881,-13.87022 -13.07292,-19.976796 -34.13222,-32.466051 -59.86046,-35.50035 -32.61476,-3.846471 -63.60064,9.824448 -80.46347,35.50035 -4.62034,7.03508 -5.2175,8.61243 -5.2175,13.7816 0,3.21049 0.68545,7.16277 1.52322,8.78283 3.65991,7.07749 14.80532,7.95173 19.47274,1.52743 z"
     id="path856"
     transform="scale(0.045)" />
  <path
     style="fill:#ffffff;fill-opacity:0.9;stroke:#000000;stroke-width:7.00942"
     d="m 247.97996,704.04445 c -6.35559,-8.38195 -4.92091,-13.34963 7.26904,-25.16958 4.40444,-4.27074 8.00807,-7.98376 8.00807,-8.25114 0,-0.26739 -1.87178,-3.24559 -4.15951,-6.61821 -11.22282,-16.54494 -14.55467,-27.26588 -14.45402,-46.50888 0.14173,-27.09791 6.55269,-43.05582 43.68872,-108.74832 26.42954,-46.75305 31.04264,-56.10617 39.56344,-80.21535 19.30836,-54.63207 20.45773,-89.06291 3.52214,-105.51054 -2.20616,-2.1426 -6.93745,-5.65425 -10.51398,-7.80366 -3.57653,-2.14942 -8.09521,-5.1007 -10.04151,-6.5584 l -3.53872,-2.65036 2.462,-2.6364 c 3.9839,-4.26609 10.32204,-7.36808 22.76778,-11.1429 16.44344,-4.98733 16.45437,-5.03747 4.53597,-20.82645 -16.3754,-21.69339 -24.7007,-40.66757 -28.14114,-64.13643 -6.0772,-41.45548 7.27114,-83.49367 35.28382,-111.119987 13.14195,-12.960684 32.38978,-23.933102 48.9273,-27.891498 7.39121,-1.769145 32.95952,-1.731721 40.21884,0.05887 44.32379,10.932935 79.59671,54.745385 84.12996,104.497705 3.46006,37.97407 -6.02371,70.14569 -29.3725,99.6398 -7.27123,9.18499 -8.79231,13.05793 -6.02908,15.35121 0.74408,0.61754 7.29726,3.16093 14.56262,5.65197 13.15194,4.50937 22.29551,9.66751 21.48458,12.12007 -0.23425,0.70844 -4.92456,4.27523 -10.42289,7.92618 -5.49834,3.65094 -11.68045,8.2539 -13.73801,10.2288 -13.79887,13.24448 -15.16955,39.92887 -4.06362,79.11077 5.39985,19.05078 13.77449,42.26589 19.72654,54.68335 2.85943,5.96551 13.93799,26.35111 24.61901,45.30131 32.13331,57.01072 38.94467,71.02145 44.10873,90.73001 2.22956,8.50915 2.76166,13.11502 2.82787,24.4786 0.11706,20.09072 -2.20887,27.7667 -13.48061,44.48819 l -5.3117,7.87983 9.19418,9.53751 c 11.84902,12.29148 12.71971,15.57999 6.34797,23.9756 l -2.9949,3.94618 H 412.92059 250.87483 Z m 76.64992,-17.33754 c 28.16412,-2.76589 32.50082,-2.90769 88.82907,-2.90436 53.65692,0.003 61.3938,0.22956 82.36878,2.41002 12.73216,1.32357 29.04909,2.7084 36.25984,3.0774 l 13.11046,0.67092 3.43234,-3.43234 c 3.27298,-3.27298 3.41196,-3.75263 2.99315,-10.33 -0.72104,-11.3236 -2.33985,-12.23242 -26.72446,-15.00365 -41.17187,-4.67905 -104.07353,-7.74274 -135.66622,-6.6078 -36.64813,1.31657 -102.98954,7.32549 -107.68513,9.75368 -4.92994,2.54937 -7.52348,6.69834 -7.52348,12.03555 0,9.81323 5.51196,14.66179 15.61238,13.73331 2.96097,-0.27218 18.70794,-1.80341 34.99327,-3.40273 z m 40.18173,-371.47005 c 10.90207,-2.91661 11.16335,-2.93287 47.57062,-2.96097 36.43614,-0.0281 36.66321,-0.0143 48.26924,2.93272 15.66238,3.97705 20.48857,3.92777 24.39031,-0.24906 5.08918,-5.44799 5.04309,-14.21105 -0.10175,-19.35594 -3.18058,-3.18059 -14.35597,-7.39963 -25.7206,-9.71029 -10.41785,-2.11816 -53.58338,-3.47862 -70.93366,-2.23563 -15.93975,1.14193 -36.03973,4.98734 -41.89457,8.01499 -5.573,2.88188 -8.84073,7.75133 -8.84073,13.17404 0,5.27735 2.17458,10.44762 5.11438,12.15989 3.22722,1.87968 10.75358,1.27825 22.14676,-1.76975 z m -9.18104,-165.1182 c 2.17367,-0.75775 5.9354,-4.42594 10.84888,-10.57915 8.65206,-10.83506 12.40037,-13.95793 22.49023,-18.73752 7.19852,-3.40996 7.40774,-3.43994 24.00447,-3.43994 h 16.74264 l 8.56018,4.21137 c 6.38856,3.143 10.19908,5.96512 15.02047,11.1244 18.84742,20.16822 16.90674,18.58119 22.71637,18.57676 10.43282,-0.008 15.84237,-6.21142 15.95814,-18.30015 0.0859,-8.9706 -3.29843,-15.41641 -14.16083,-26.9708 -17.12702,-18.218109 -38.38173,-26.890947 -65.79278,-26.846307 -25.84879,0.0421 -45.02199,7.914717 -62.62966,25.716077 -12.04352,12.17601 -16.73567,20.99088 -15.83234,29.74332 0.33965,3.29086 1.51489,7.53814 2.61164,9.43838 3.55065,6.15187 11.81938,8.72799 19.46259,6.06356 z"
     id="path858"
     transform="scale(0.045)" />
</svg>
