<?xml version="1.0" encoding="UTF-8" standalone="no"?>
<!-- Uploaded to: SVG Repo, www.svgrepo.com, Generator: SVG Repo Mixer Tools -->

<svg
   width="800px"
   height="800px"
   viewBox="0 0 36 36"
   aria-hidden="true"
   role="img"
   class="iconify iconify--twemoji"
   preserveAspectRatio="xMidYMid meet"
   version="1.1"
   id="svg6"
   sodipodi:docname="chess-pawn.svg"
   inkscape:version="1.2.2 (b0a8486541, 2022-12-01)"
   xmlns:inkscape="http://www.inkscape.org/namespaces/inkscape"
   xmlns:sodipodi="http://sodipodi.sourceforge.net/DTD/sodipodi-0.dtd"
   xmlns="http://www.w3.org/2000/svg"
   xmlns:svg="http://www.w3.org/2000/svg">
  <defs
     id="defs10" />
  <sodipodi:namedview
     id="namedview8"
     pagecolor="#ffffff"
     bordercolor="#000000"
     borderopacity="0.25"
     inkscape:showpageshadow="2"
     inkscape:pageopacity="0.0"
     inkscape:pagecheckerboard="0"
     inkscape:deskcolor="#d1d1d1"
     showgrid="false"
     inkscape:zoom="0.92875"
     inkscape:cx="403.23015"
     inkscape:cy="403.23015"
     inkscape:window-width="1920"
     inkscape:window-height="1052"
     inkscape:window-x="0"
     inkscape:window-y="0"
     inkscape:window-maximized="1"
     inkscape:current-layer="svg6" />
  <path
     style="fill:#3ca900;fill-opacity:0.9;stroke-width:0.0369418"
     d="m 11.040703,31.888219 c -0.286793,-0.327814 -0.34973,-0.66355 -0.184723,-0.985388 0.117491,-0.229159 0.311043,-0.417334 0.741572,-0.72097 0.0064,-0.0045 -0.07203,-0.121186 -0.174432,-0.259168 -0.676531,-0.911561 -0.837875,-2.111819 -0.458689,-3.412242 0.263684,-0.90431 0.662739,-1.721479 1.807541,-3.701413 1.192693,-2.062759 1.340077,-2.355934 1.746859,-3.474849 0.624218,-1.717008 0.848292,-2.929895 0.694547,-3.759528 -0.117015,-0.631441 -0.366821,-0.958347 -0.949717,-1.242845 -0.384286,-0.18756 -0.656519,-0.43065 -0.656519,-0.586236 0,-0.133339 0.183685,-0.337968 0.421097,-0.46911 0.280218,-0.154787 0.475994,-0.227047 0.939196,-0.346648 0.206543,-0.05333 0.382809,-0.105282 0.391703,-0.115447 0.0088,-0.01017 -0.113901,-0.166538 -0.272875,-0.347493 C 13.574436,10.746015 13.18472,8.1595245 14.108369,5.9767438 14.78511,4.377458 16.039222,3.2630754 17.606094,2.8687222 c 0.486148,-0.1223542 1.467205,-0.1223542 1.953353,0 2.042447,0.5140462 3.516696,2.2333584 3.917913,4.5691894 0.08455,0.4922137 0.08426,1.5254757 -5.54e-4,2.0128344 -0.132399,0.760772 -0.375705,1.460639 -0.714476,2.055197 -0.222857,0.391122 -0.606248,0.916979 -0.811599,1.113184 -0.08499,0.08121 -0.154532,0.159922 -0.154532,0.174921 0,0.015 0.1827,0.07564 0.405997,0.134749 0.695308,0.18407 1.092316,0.377234 1.269213,0.617535 0.116729,0.15857 0.10977,0.241047 -0.03588,0.425339 -0.08941,0.113119 -0.216977,0.201918 -0.468263,0.325951 -0.575507,0.284068 -0.832796,0.564424 -0.964449,1.050915 -0.235722,0.871049 -0.03363,2.122011 0.643905,3.985652 0.406783,1.118915 0.554166,1.41209 1.74686,3.474849 0.90952,1.573014 1.317097,2.354391 1.563389,2.997212 0.319286,0.83334 0.438243,1.379037 0.439106,2.014346 0.0011,0.846997 -0.198374,1.488666 -0.653642,2.102097 -0.102406,0.137982 -0.180899,0.254607 -0.174432,0.259168 0.430528,0.303636 0.624081,0.491811 0.741571,0.72097 0.165006,0.321838 0.10207,0.657574 -0.184721,0.985388 l -0.153189,0.175099 h -7.388892 -7.388881 z m 3.222945,-1.147585 c 2.127353,-0.205685 2.676421,-0.235367 4.3364,-0.23442 1.673557,9.53e-4 2.218166,0.03123 4.336398,0.241082 1.386699,0.137378 1.4894,0.138417 1.603308,0.01623 0.169488,-0.181809 0.148898,-0.516755 -0.04048,-0.658594 -0.09216,-0.06903 -0.624035,-0.136103 -2.150223,-0.271186 -2.857414,-0.252909 -4.104088,-0.267985 -6.565066,-0.07941 -0.906733,0.06948 -2.758538,0.244216 -2.943626,0.277755 -0.262156,0.04751 -0.407733,0.368639 -0.280231,0.618181 0.09909,0.193941 0.195318,0.236094 0.476896,0.208912 0.133029,-0.01284 0.685012,-0.06619 1.22663,-0.11856 z m 1.662837,-16.630577 c 0.185968,-0.07604 0.679695,-0.196002 1.049572,-0.255001 0.436639,-0.06965 2.225252,-0.09558 2.792215,-0.04048 0.581759,0.05654 1.136521,0.165274 1.423249,0.278965 0.256403,0.10167 0.396282,0.07891 0.516212,-0.08402 0.11823,-0.160608 0.119919,-0.381288 0.0041,-0.538593 -0.139148,-0.189023 -0.768924,-0.375513 -1.66058,-0.491734 -0.511549,-0.06668 -2.433802,-0.0652 -2.95428,0.0023 -0.880158,0.114094 -1.503427,0.299452 -1.642597,0.488505 -0.191867,0.260639 -0.03077,0.686222 0.264771,0.699405 0.03087,0.0014 0.124161,-0.02532 0.207317,-0.05933 z m 0.09467,-7.5894937 c 0.0501,-0.042285 0.179515,-0.2107467 0.287608,-0.3743586 0.317027,-0.4798554 0.738237,-0.7983176 1.330825,-1.0061913 0.283561,-0.09947 0.346826,-0.1066217 0.943179,-0.1066217 0.599042,0 0.6587,0.00683 0.94892,0.1085239 0.603569,0.2115065 1.061682,0.5674285 1.348995,1.0480753 0.249021,0.4165826 0.512454,0.5338637 0.809748,0.3605011 0.288631,-0.1683113 0.372117,-0.6074132 0.180864,-0.9512597 -0.651337,-1.1710021 -1.862443,-1.8536785 -3.288527,-1.8536785 -1.402034,0 -2.608837,0.6651098 -3.252978,1.7928261 -0.113533,0.1987646 -0.133215,0.2651812 -0.133215,0.4495357 0,0.2726755 0.08793,0.4448618 0.285908,0.5598863 0.174633,0.1014606 0.3997,0.090081 0.538673,-0.027239 z"
     id="path931" />
</svg>
