<?xml version="1.0" encoding="UTF-8" standalone="no"?>
<!-- Uploaded to: SVG Repo, www.svgrepo.com, Generator: SVG Repo Mixer Tools -->

<svg
   fill="#000000"
   version="1.1"
   id="Capa_1"
   width="800px"
   height="800px"
   viewBox="0 0 191.325 191.325"
   xml:space="preserve"
   sodipodi:docname="Christ-icon.svg"
   inkscape:version="1.2.2 (b0a8486541, 2022-12-01)"
   xmlns:inkscape="http://www.inkscape.org/namespaces/inkscape"
   xmlns:sodipodi="http://sodipodi.sourceforge.net/DTD/sodipodi-0.dtd"
   xmlns="http://www.w3.org/2000/svg"
   xmlns:svg="http://www.w3.org/2000/svg"><defs
   id="defs9" /><sodipodi:namedview
   id="namedview7"
   pagecolor="#ffffff"
   bordercolor="#000000"
   borderopacity="0.25"
   inkscape:showpageshadow="2"
   inkscape:pageopacity="0.0"
   inkscape:pagecheckerboard="0"
   inkscape:deskcolor="#d1d1d1"
   showgrid="false"
   inkscape:zoom="0.92875"
   inkscape:cx="400"
   inkscape:cy="400"
   inkscape:window-width="1920"
   inkscape:window-height="1052"
   inkscape:window-x="0"
   inkscape:window-y="0"
   inkscape:window-maximized="1"
   inkscape:current-layer="Capa_1" />

<path
   style="fill:#ffffff;fill-opacity:0.9;stroke-width:1.55690719;stroke:#000000;stroke-opacity:1;stroke-dasharray:none"
   d="m 79.965666,169.76498 c -1.2186,-0.0917 -2.850114,-0.275 -3.625584,-0.40738 l -1.409949,-0.2407 -0.183306,-1.76913 c -0.215512,-2.07996 -0.01917,-3.39878 0.907145,-6.09347 0.800635,-2.32904 1.996469,-4.46815 3.177057,-5.68314 0.510151,-0.525 1.925856,-1.6429 3.146015,-2.48422 3.437948,-2.37052 3.490885,-2.44084 3.924884,-5.21343 0.340374,-2.17447 0.455029,-12.97995 0.2373,-22.36437 -0.297866,-12.83851 -0.05385,-19.20472 1.006375,-26.256746 0.564255,-3.75307 0.432914,-4.59941 -0.913116,-5.88382 -1.834657,-1.75068 -2.404846,-3.62286 -2.386443,-7.83575 0.007,-1.5888 0.110995,-3.811259 0.231232,-4.938797 0.120236,-1.127537 0.218687,-3.064433 0.21878,-4.304209 1.5e-4,-2.017343 0.04249,-2.289582 0.403011,-2.591471 0.477983,-0.400243 0.523112,-1.073497 0.0983,-1.466558 -0.384725,-0.355978 -1.22986,-0.450539 -5.234549,-0.585692 -1.772508,-0.05983 -4.582337,-0.191462 -6.244062,-0.292532 -1.661726,-0.10107 -5.015392,-0.303118 -7.452591,-0.448992 -2.439018,-0.145982 -4.974612,-0.398317 -5.639797,-0.561258 -2.731353,-0.669057 -5.167436,-2.1765 -7.685871,-4.756006 C 50.592323,63.591895 50.1553,62.981317 50.1553,62.254892 v -0.657683 l -3.625585,-0.602451 c -3.401636,-0.565237 -9.102359,-1.765279 -10.127077,-2.131818 -1.145388,-0.409702 -0.557656,-1.285933 1.671699,-2.492281 1.216698,-0.658379 1.289425,-0.736407 1.264235,-1.356361 -0.02951,-0.726431 0.408929,-1.164325 1.165781,-1.164325 1.165648,0 5.701837,1.730862 7.336351,2.79931 0.277914,0.18167 1.637511,0.688517 3.021321,1.126327 2.16973,0.686462 2.807235,0.807587 4.631931,0.880054 1.469125,0.05835 2.700532,-0.01301 4.028427,-0.233362 4.016328,-0.666546 10.242201,-0.57519 13.997793,0.2054 2.996326,0.622775 3.351901,0.592421 6.595933,-0.563104 4.624002,-1.647078 9.383275,-2.802607 13.143369,-3.191151 1.79345,-0.185323 2.66127,-0.429606 2.81552,-0.792535 0.0758,-0.178269 0.22015,-2.588517 0.32085,-5.356107 0.20467,-5.625025 0.43959,-7.662906 1.00066,-8.680504 0.68197,-1.236877 2.56375,-1.753709 4.725512,-1.297858 0.98332,0.207354 2.15737,1.332353 3.21278,3.078572 1.12021,1.853434 1.51209,3.568789 1.80097,7.883038 0.21915,3.273021 0.30742,3.846749 0.65948,4.286505 1.07819,1.346787 2.53019,1.797746 8.79517,2.731593 2.13054,0.317574 3.78732,1.010021 6.86288,2.86831 1.86293,1.125606 2.32148,1.324161 3.02132,1.308284 0.45379,-0.01029 1.60665,0.114105 2.56192,0.276448 4.85282,0.824705 13.00755,0.896125 17.61613,0.154278 2.69054,-0.433098 3.6665,-0.850953 6.74709,-2.888695 3.96593,-2.623388 5.81119,-3.476585 7.51906,-3.476585 0.8888,0 0.98738,0.163511 0.71094,1.179293 -0.18597,0.683339 -0.16893,0.925479 0.0989,1.404633 0.18059,0.323147 0.54521,0.630433 0.82521,0.695457 0.8999,0.208982 0.91337,1.84425 0.023,2.801947 -0.39204,0.421728 -0.81358,0.553134 -2.96198,0.923323 -1.37769,0.237391 -3.32064,0.48485 -4.31767,0.549914 -3.44516,0.224819 -4.58862,0.763783 -6.15846,2.902723 -2.68905,3.663901 -5.65037,5.778737 -9.42278,6.729334 -1.37544,0.346593 -1.96902,0.380546 -5.56801,0.318512 -8.27983,-0.142718 -11.37835,-0.07724 -13.19309,0.278823 -2.39331,0.469577 -3.11638,0.777204 -3.9932,1.698876 -0.96447,1.013826 -1.24465,1.805326 -1.38288,3.906566 -0.20962,3.186593 0.59278,6.760212 3.55695,15.841422 2.8041,8.590856 3.63193,11.902226 3.63193,14.528066 0,2.5316 -0.82125,3.73861 -2.92963,4.30573 -1.91194,0.51428 -2.49571,1.84497 -1.27302,2.90179 0.70482,0.6092 0.95697,1.51115 1.89344,6.77254 0.46521,2.61379 0.65091,5.84682 0.37415,6.51414 -0.0919,0.22148 -0.41005,0.29481 -1.27946,0.29481 -2.0354,0 -3.19595,1.13908 -3.6395,3.57222 -0.27209,1.49266 -0.0463,3.57467 0.69428,6.39855 0.88286,3.36685 1.15021,5.05237 1.09135,6.88033 -0.0454,1.40897 0.008,1.82576 0.26946,2.09819 0.17932,0.18699 0.35827,0.50264 0.39763,0.70147 0.0393,0.1988 0.70585,0.81132 1.48109,1.36113 1.96103,1.39077 2.61709,2.0074 3.62012,3.40254 1.65782,2.30593 2.52083,4.94437 3.0303,9.26449 0.17178,1.45661 0.48109,3.25973 0.68733,4.00696 0.20627,0.74721 0.35559,1.37821 0.33185,1.4022 -0.1073,0.10846 -11.68157,0.42017 -19.35244,0.5212 -4.65283,0.0612 -10.771022,0.22946 -13.595942,0.37376 -7.283281,0.372 -12.040637,0.45862 -14.603055,0.26585 z"
   id="path807" /></svg>
