<?xml version="1.0" encoding="UTF-8" standalone="no"?>
<svg
   viewBox="0 0 640 640"
   version="1.1"
   id="svg1196"
   sodipodi:docname="compact-disc-solid-full.svg"
   inkscape:version="1.2.2 (b0a8486541, 2022-12-01)"
   xmlns:inkscape="http://www.inkscape.org/namespaces/inkscape"
   xmlns:sodipodi="http://sodipodi.sourceforge.net/DTD/sodipodi-0.dtd"
   xmlns="http://www.w3.org/2000/svg"
   xmlns:svg="http://www.w3.org/2000/svg">
  <defs
     id="defs1200" />
  <sodipodi:namedview
     id="namedview1198"
     pagecolor="#ffffff"
     bordercolor="#000000"
     borderopacity="0.25"
     inkscape:showpageshadow="2"
     inkscape:pageopacity="0.0"
     inkscape:pagecheckerboard="0"
     inkscape:deskcolor="#d1d1d1"
     showgrid="false"
     inkscape:zoom="1.1609375"
     inkscape:cx="172.70525"
     inkscape:cy="320"
     inkscape:window-width="1920"
     inkscape:window-height="1052"
     inkscape:window-x="0"
     inkscape:window-y="0"
     inkscape:window-maximized="1"
     inkscape:current-layer="svg1196" />
  <!--!Font Awesome Free 7.1.0 by @fontawesome - https://fontawesome.com License - https://fontawesome.com/license/free Copyright 2025 Fonticons, Inc.-->
  <path
     d="M64 320C64 178.6 178.6 64 320 64C461.4 64 576 178.6 576 320C576 461.4 461.4 576 320 576C178.6 576 64 461.4 64 320zM320 352C302.3 352 288 337.7 288 320C288 302.3 302.3 288 320 288C337.7 288 352 302.3 352 320C352 337.7 337.7 352 320 352zM224 320C224 373 267 416 320 416C373 416 416 373 416 320C416 267 373 224 320 224C267 224 224 267 224 320zM168 304C168 271.6 184.3 237.4 210.8 210.8C237.3 184.2 271.6 168 304 168C317.3 168 328 157.3 328 144C328 130.7 317.3 120 304 120C256.1 120 210.3 143.5 176.9 176.9C143.5 210.3 120 256.1 120 304C120 317.3 130.7 328 144 328C157.3 328 168 317.3 168 304z"
     id="path1194" />
  <path
     style="fill:#042542;fill-opacity:0.9;stroke-width:0.861373"
     d="M 305.78735,575.29904 C 270.87046,573.08635 237.26611,564.06284 206.29879,548.58413 180.87726,535.87744 159.73472,520.64579 139.5077,500.46605 98.841896,459.89529 74.081107,409.22927 66.256878,350.57873 64.246309,335.50748 64.225745,304.8638 66.215938,289.56462 71.422788,249.53801 84.8304,212.92157 106.16697,180.4576 c 10.36908,-15.77672 19.97937,-27.57644 33.34678,-40.94385 40.72144,-40.721433 91.93296,-65.737567 150.05087,-73.297817 15.02316,-1.954282 45.8476,-1.954282 60.87076,0 48.34872,6.289428 92.36332,24.885765 129.77996,54.832547 11.58279,9.27039 29.46579,27.15339 38.73619,38.73618 22.4496,28.04938 39.73898,62.45206 48.26733,96.04307 6.01997,23.71109 8.0206,39.718 8.0206,64.17227 0,41.1737 -8.47685,77.3326 -26.65533,113.70121 -12.71887,25.4459 -28.05934,46.7465 -48.09789,66.78503 -40.57746,40.57748 -92.05736,65.76529 -149.48983,73.14158 -10.1544,1.30418 -35.95215,2.25782 -45.20906,1.67122 z m 33.78761,-160.89037 c 39.81273,-8.62164 69.61394,-40.04571 75.64593,-79.76533 8.01773,-52.79536 -27.97979,-101.8765 -80.57755,-109.86423 -52.77846,-8.01516 -101.87906,27.99663 -109.86423,80.57755 -7.94802,52.33638 27.49773,101.18142 79.71618,109.8507 8.98712,1.49203 26.32443,1.09731 35.07967,-0.79869 z M 150.97658,327.29958 c 5.95399,-1.76814 11.11016,-5.91371 14.20224,-11.41861 2.22993,-3.96999 2.65139,-5.83586 3.3077,-14.64334 0.99773,-13.3893 2.7673,-22.44435 6.45858,-33.04913 12.92985,-37.14652 42.59762,-69.93804 78.99991,-87.31793 16.42825,-7.84349 28.50162,-11.03005 46.86105,-12.36819 9.28183,-0.67652 11.06033,-1.06858 15.07403,-3.32306 17.40895,-9.77854 16.38454,-34.52543 -1.80006,-43.48474 -3.54759,-1.74785 -5.12229,-1.94712 -14.32229,-1.81239 -22.99362,0.33673 -46.16973,6.40028 -70.42407,18.42503 -62.74931,31.10968 -108.53171,98.64272 -109.45148,161.45052 -0.13448,9.18316 0.0665,10.77856 1.80095,14.29867 5.66577,11.49855 17.36223,16.78636 29.29344,13.24317 z"
     id="path1202" />
  <path
     style="fill:#042542;fill-opacity:0.9;stroke-width:0.861373"
     d="m 314.08387,350.94257 c -8.82339,-1.73403 -18.45061,-9.15472 -22.33629,-17.21689 -9.12202,-18.92674 2.33508,-40.8927 23.35581,-44.7786 20.22891,-3.73951 39.68904,15.72062 35.94953,35.94953 -2.47393,13.38271 -12.57949,23.6109 -25.78691,26.09982 -5.22423,0.9845 -5.9155,0.98117 -11.18214,-0.0539 z"
     id="path1684" />
</svg>
