<?xml version="1.0" encoding="UTF-8" standalone="no"?>
<!-- Uploaded to: SVG Repo, www.svgrepo.com, Generator: SVG Repo Mixer Tools -->

<svg
   width="800px"
   height="800px"
   viewBox="0 0 16 16"
   fill="none"
   version="1.1"
   id="svg43376"
   sodipodi:docname="dollar-svgrepo-com.svg"
   inkscape:version="1.2.2 (b0a8486541, 2022-12-01)"
   xmlns:inkscape="http://www.inkscape.org/namespaces/inkscape"
   xmlns:sodipodi="http://sodipodi.sourceforge.net/DTD/sodipodi-0.dtd"
   xmlns="http://www.w3.org/2000/svg"
   xmlns:svg="http://www.w3.org/2000/svg">
  <defs
     id="defs43380" />
  <sodipodi:namedview
     id="namedview43378"
     pagecolor="#ffffff"
     bordercolor="#000000"
     borderopacity="0.25"
     inkscape:showpageshadow="2"
     inkscape:pageopacity="0.0"
     inkscape:pagecheckerboard="0"
     inkscape:deskcolor="#d1d1d1"
     showgrid="false"
     inkscape:zoom="0.92875"
     inkscape:cx="400"
     inkscape:cy="400"
     inkscape:window-width="1920"
     inkscape:window-height="1052"
     inkscape:window-x="0"
     inkscape:window-y="0"
     inkscape:window-maximized="1"
     inkscape:current-layer="svg43376" />
  <path
     fill-rule="evenodd"
     clip-rule="evenodd"
     d="M6.21606 15L6.10495 16H8.11726L8.22837 15H10.003C12.2105 15 14 13.2105 14 11.003C14 9.12963 12.6989 7.5076 10.8701 7.1012L9.14852 6.71864L9.45059 4H13V1H9.78393L9.89504 0H7.88273L7.77162 1H5.99699C3.78951 1 2 2.78951 2 4.99699C2 6.87037 3.30115 8.4924 5.12992 8.8988L6.85147 9.28136L6.54939 12H3V15H6.21606ZM8.5617 12H10.003C10.5536 12 11 11.5536 11 11.003C11 10.5357 10.6754 10.1311 10.2193 10.0298L8.81528 9.71776L8.5617 12ZM7.1847 6.28223L7.43828 4H5.99699C5.44637 4 5 4.44637 5 4.99699C5 5.46427 5.32455 5.86887 5.78071 5.97023L7.1847 6.28223Z"
     fill="#000000"
     id="path43374" />
  <path
     style="fill:#ffffff;fill-opacity:0.9;stroke-width:1.07672"
     d="m 306.32571,797.32979 c 0,-2.50459 4.08106,-40.10982 4.82237,-44.43612 l 0.50737,-2.96096 h -80.72678 -80.72679 v -74.83177 -74.83176 h 88.78029 88.78027 l 0.58794,-3.49933 c 1.48745,-8.85314 14.72692,-132.38254 14.24046,-132.869 -0.30234,-0.30235 -21.87921,-5.30548 -47.94858,-11.11808 -26.06937,-5.8126 -51.42701,-11.89727 -56.35031,-13.5215 -51.75706,-17.07507 -94.37593,-54.40112 -117.7491,-103.12591 -29.089358,-60.64099 -26.140885,-129.41609 8.05866,-187.97382 10.29887,-17.63409 30.31072,-40.52014 47.46181,-54.278493 23.71669,-19.025185 54.43927,-33.247014 85.21323,-39.446172 16.66681,-3.35739 34.74746,-4.288856 84.08011,-4.331581 24.1319,-0.0209 43.88441,-0.401391 43.89445,-0.845536 0.0101,-0.444146 1.21314,-11.224765 2.67352,-23.956932 1.46038,-12.732167 2.66346,-23.5127856 2.67352,-23.956931 0.01,-0.44414534 22.30629,-0.80753699 49.54721,-0.80753699 48.644,0 49.52893,0.0380898 49.52893,2.13185199 0,2.5045959 -4.08106,40.109819 -4.82237,44.436116 l -0.50737,2.960969 h 80.72678 80.72679 v 74.831765 74.83176 h -88.78029 -88.78027 l -0.58794,3.49933 c -1.48745,8.85314 -14.72692,132.38254 -14.24046,132.869 0.30234,0.30235 21.87921,5.30548 47.94858,11.11808 26.06937,5.8126 51.42701,11.89727 56.35031,13.5215 107.66693,35.52019 164.53408,153.11839 125.09865,258.69723 -24.21278,64.82383 -80.9718,113.04457 -148.50762,126.16754 -17.27787,3.35729 -34.65714,4.24877 -83.65574,4.29121 -24.1319,0.0209 -43.88441,0.40139 -43.89445,0.84553 -0.01,0.44415 -1.21314,11.22477 -2.67352,23.95693 -1.46038,12.73217 -2.66346,23.51279 -2.67352,23.95693 -0.01,0.44415 -22.30629,0.80754 -49.54721,0.80754 -48.644,0 -49.52893,-0.0381 -49.52893,-2.13185 z M 513.6365,598.59812 c 23.73177,-6.17972 40.07129,-31.15682 36.30402,-55.49544 -1.59801,-10.32398 -6.52267,-20.2398 -13.88598,-27.95948 -9.68484,-10.15353 -13.88298,-11.72092 -57.4733,-21.45802 -20.97248,-4.68477 -38.20237,-8.42068 -38.28864,-8.30201 -0.28415,0.39083 -12.3597,111.07421 -12.3285,113.00176 0.0285,1.75982 2.64625,1.88425 39.64279,1.88425 32.3264,0 40.79261,-0.30736 46.02961,-1.67106 z M 365.91103,259.21938 c 3.38355,-30.64603 6.13895,-56.56797 6.12312,-57.60431 -0.0269,-1.75986 -2.64384,-1.88425 -39.64104,-1.88425 -32.3264,0 -40.79261,0.30736 -46.02961,1.67106 -23.73177,6.17972 -40.07129,31.15682 -36.30402,55.49544 1.59801,10.32398 6.52267,20.2398 13.88598,27.95948 9.64045,10.10699 13.95891,11.73135 56.98042,21.43278 20.6913,4.66594 37.89341,8.52094 38.22691,8.56669 0.33349,0.0458 3.37469,-24.99086 6.75824,-55.63689 z"
     id="path43931"
     transform="scale(0.02)" />
</svg>
