<?xml version="1.0" encoding="UTF-8" standalone="no"?>
<svg
   viewBox="0 0 640 640"
   version="1.1"
   id="svg1694"
   sodipodi:docname="film-solid-full.svg"
   inkscape:version="1.2.2 (b0a8486541, 2022-12-01)"
   xmlns:inkscape="http://www.inkscape.org/namespaces/inkscape"
   xmlns:sodipodi="http://sodipodi.sourceforge.net/DTD/sodipodi-0.dtd"
   xmlns="http://www.w3.org/2000/svg"
   xmlns:svg="http://www.w3.org/2000/svg">
  <defs
     id="defs1698" />
  <sodipodi:namedview
     id="namedview1696"
     pagecolor="#ffffff"
     bordercolor="#000000"
     borderopacity="0.25"
     inkscape:showpageshadow="2"
     inkscape:pageopacity="0.0"
     inkscape:pagecheckerboard="0"
     inkscape:deskcolor="#d1d1d1"
     showgrid="false"
     inkscape:zoom="1.1609375"
     inkscape:cx="320"
     inkscape:cy="320"
     inkscape:window-width="1920"
     inkscape:window-height="1052"
     inkscape:window-x="0"
     inkscape:window-y="0"
     inkscape:window-maximized="1"
     inkscape:current-layer="svg1694" />
  <!--!Font Awesome Free 7.1.0 by @fontawesome - https://fontawesome.com License - https://fontawesome.com/license/free Copyright 2025 Fonticons, Inc.-->
  <path
     d="M96 160C96 124.7 124.7 96 160 96L480 96C515.3 96 544 124.7 544 160L544 480C544 515.3 515.3 544 480 544L160 544C124.7 544 96 515.3 96 480L96 160zM144 432L144 464C144 472.8 151.2 480 160 480L192 480C200.8 480 208 472.8 208 464L208 432C208 423.2 200.8 416 192 416L160 416C151.2 416 144 423.2 144 432zM448 416C439.2 416 432 423.2 432 432L432 464C432 472.8 439.2 480 448 480L480 480C488.8 480 496 472.8 496 464L496 432C496 423.2 488.8 416 480 416L448 416zM144 304L144 336C144 344.8 151.2 352 160 352L192 352C200.8 352 208 344.8 208 336L208 304C208 295.2 200.8 288 192 288L160 288C151.2 288 144 295.2 144 304zM448 288C439.2 288 432 295.2 432 304L432 336C432 344.8 439.2 352 448 352L480 352C488.8 352 496 344.8 496 336L496 304C496 295.2 488.8 288 480 288L448 288zM144 176L144 208C144 216.8 151.2 224 160 224L192 224C200.8 224 208 216.8 208 208L208 176C208 167.2 200.8 160 192 160L160 160C151.2 160 144 167.2 144 176zM448 160C439.2 160 432 167.2 432 176L432 208C432 216.8 439.2 224 448 224L480 224C488.8 224 496 216.8 496 208L496 176C496 167.2 488.8 160 480 160L448 160z"
     id="path1692" />
  <path
     style="fill:#042542;fill-opacity:0.9;stroke-width:0.861373"
     d="M 152.14233,543.03758 C 126.04755,539.60487 104.69253,520.35289 97.964761,494.19541 96.575854,488.79535 96.473755,476.86704 96.473755,320 c 0,-156.86704 0.102099,-168.79535 1.491006,-174.1954 6.107629,-23.7464 24.093439,-41.73221 47.839839,-47.839839 5.40005,-1.388907 17.32836,-1.491006 174.1954,-1.491006 156.86704,0 168.79535,0.102099 174.19541,1.491006 23.76391,6.112129 41.27646,23.585209 47.7148,47.607249 1.5544,5.79962 1.61603,12.45272 1.61603,174.42799 0,161.97527 -0.0617,168.62837 -1.61603,174.42799 -6.38989,23.84125 -22.97637,40.57246 -47.05153,47.46205 -5.36388,1.53498 -12.55989,1.60786 -171.41319,1.73592 -91.19785,0.0735 -168.28427,-0.19125 -171.30316,-0.58838 z m 49.55625,-65.89829 c 6.22891,-4.98095 6.3949,-5.79774 6.12853,-30.15591 l -0.23626,-21.60342 -2.48412,-3.2548 c -4.53074,-5.93635 -6.93934,-6.47495 -28.95599,-6.47495 -21.04477,0 -23.82367,0.51733 -28.16885,5.24388 -4.11342,4.47445 -4.5646,7.17566 -4.5444,27.20745 0.0205,20.34015 0.58172,23.30059 5.26664,27.78217 4.28639,4.10035 5.8195,4.32158 28.44532,4.10463 l 21.24098,-0.20368 z m 287.42607,0.49193 c 1.84326,-1.24848 4.07808,-3.9439 5.31805,-6.41407 2.08201,-4.14766 2.13873,-4.75945 2.13873,-23.06939 0,-20.07413 -0.45362,-22.78326 -4.56332,-27.25367 -4.34518,-4.72655 -7.12408,-5.24388 -28.16885,-5.24388 -22.01652,0 -24.42515,0.53859 -28.95599,6.47479 l -2.48412,3.25463 -0.27314,20.74222 c -0.29638,22.50675 0.1041,25.48592 3.91475,29.1219 5.17259,4.93546 5.72209,5.02678 28.72541,4.77375 20.9786,-0.23075 21.19779,-0.25223 24.34848,-2.38628 z M 200.27844,350.01717 c 2.2991,-1.35168 4.67293,-3.68548 5.81427,-5.71621 1.85001,-3.29166 1.92882,-4.28462 1.92882,-24.30096 0,-20.01634 -0.0788,-21.0093 -1.92882,-24.30096 -1.14134,-2.03073 -3.51517,-4.36453 -5.81427,-5.71621 -3.8077,-2.23861 -4.23875,-2.29016 -21.54358,-2.5768 -21.14088,-0.35017 -25.31207,0.32698 -30.09025,4.88486 -1.95703,1.86681 -3.70225,4.57001 -4.26457,6.60548 -1.25568,4.54523 -1.25568,37.66203 0,42.20726 1.18837,4.30165 6.37607,9.39051 10.81097,10.605 1.93113,0.52885 11.16765,0.83954 22.25179,0.7485 18.82292,-0.15461 18.9763,-0.17099 22.83564,-2.43996 z m 287.25857,0.48485 c 1.89502,-0.9897 4.60835,-3.44455 6.02961,-5.45522 l 2.58412,-3.65577 0.27365,-19.21601 c 0.31806,-22.33493 -0.17184,-25.22642 -5.06321,-29.88413 -4.78655,-4.5579 -8.95814,-5.23498 -30.09604,-4.88486 -17.30483,0.28664 -17.73588,0.33819 -21.54358,2.5768 -2.2991,1.35168 -4.67293,3.68548 -5.81427,5.71621 -1.85001,3.29166 -1.92882,4.28462 -1.92882,24.30096 0,19.93953 0.0848,21.02007 1.90527,24.25906 1.93016,3.43425 5.6587,6.29883 9.9507,7.64497 1.29617,0.40653 10.88427,0.66226 21.30688,0.5683 17.3546,-0.15646 19.24031,-0.32236 22.39569,-1.97031 z M 199.07712,222.73971 c 1.95002,-0.88554 4.66334,-3.07473 6.02961,-4.86487 l 2.48412,-3.2548 0.23626,-21.60342 c 0.26637,-24.35807 0.10039,-25.17485 -6.12838,-30.15591 l -3.308,-2.64537 -20.37975,-0.27356 c -12.7228,-0.17078 -21.54705,0.0711 -23.48662,0.64367 -3.73003,1.10121 -8.51993,5.77503 -9.94256,9.70163 -1.66341,4.59114 -1.52722,39.50276 0.16994,43.56463 1.77846,4.25644 4.40274,6.98335 8.57262,8.90788 3.02648,1.3968 5.80246,1.5902 22.82638,1.5902 17.09001,0 19.79997,-0.19032 22.92638,-1.61008 z m 287.59852,0.0199 c 4.16989,-1.92453 6.79416,-4.65144 8.57261,-8.90788 1.0652,-2.54936 1.33318,-6.97142 1.33318,-21.99947 0,-18.30994 -0.0567,-18.92173 -2.13873,-23.06939 -1.24149,-2.47321 -3.47354,-5.16405 -5.32047,-6.41407 l -3.18174,-2.15344 h -22.16351 -22.16351 l -3.3101,2.64537 c -6.23081,4.97953 -6.39687,5.79639 -6.13048,30.15591 l 0.23626,21.60342 2.48412,3.2548 c 4.53074,5.93635 6.93934,6.47495 28.95599,6.47495 17.02392,0 19.7999,-0.1934 22.82638,-1.5902 z"
     id="path1700" />
</svg>
