<?xml version="1.0" encoding="UTF-8" standalone="no"?>
<!-- Uploaded to: SVG Repo, www.svgrepo.com, Generator: SVG Repo Mixer Tools -->

<svg
   height="800px"
   width="800px"
   version="1.1"
   id="_x32_"
   viewBox="0 0 512 512"
   xml:space="preserve"
   sodipodi:docname="owl-3-svgrepo-com.svg"
   inkscape:version="1.2.2 (b0a8486541, 2022-12-01)"
   xmlns:inkscape="http://www.inkscape.org/namespaces/inkscape"
   xmlns:sodipodi="http://sodipodi.sourceforge.net/DTD/sodipodi-0.dtd"
   xmlns="http://www.w3.org/2000/svg"
   xmlns:svg="http://www.w3.org/2000/svg"><defs
   id="defs15" /><sodipodi:namedview
   id="namedview13"
   pagecolor="#ffffff"
   bordercolor="#000000"
   borderopacity="0.25"
   inkscape:showpageshadow="2"
   inkscape:pageopacity="0.0"
   inkscape:pagecheckerboard="0"
   inkscape:deskcolor="#d1d1d1"
   showgrid="false"
   inkscape:zoom="0.92875"
   inkscape:cx="402.15343"
   inkscape:cy="402.15343"
   inkscape:window-width="960"
   inkscape:window-height="1052"
   inkscape:window-x="960"
   inkscape:window-y="0"
   inkscape:window-maximized="0"
   inkscape:current-layer="_x32_" />
<style
   type="text/css"
   id="style2">
	.st0{fill:#000000;}
</style>
<g
   id="g10">
	<path
   class="st0"
   d="M203.882,152.104c5.826,0,10.553-4.726,10.553-10.553c0-5.834-4.726-10.56-10.553-10.56   s-10.553,4.726-10.553,10.56C193.329,147.378,198.055,152.104,203.882,152.104z"
   id="path4" />
	<path
   class="st0"
   d="M308.125,152.104c5.826,0,10.545-4.726,10.545-10.553c0-5.834-4.719-10.56-10.545-10.56   c-5.834,0-10.56,4.726-10.56,10.56C297.564,147.378,302.291,152.104,308.125,152.104z"
   id="path6" />
	<path
   class="st0"
   d="M381.027,208.774c29.251-62.881,10.774-110.69-17.442-149.142C374.041,45.564,366.833,0,366.833,0   s-80.442,49.441-112.004,49.582C223.274,49.715,142.404,0.976,142.404,0.976s-6.816,45.623,3.766,59.594   c-27.885,38.704-45.948,86.674-16.143,149.297c-42.809,59.247-68.22,159.015,34.31,250.852c9.275,11.04,22.184,9.135,25.825-3.795   c0,0,0.236,55.363,66.676,55.075c66.441-0.296,66.204-55.652,66.204-55.652c3.744,12.894,16.675,14.688,25.854,3.575   C450.613,367.198,424.345,267.645,381.027,208.774z M308.125,100.027c22.929,0,41.524,18.587,41.524,41.524   c0,22.937-18.595,41.524-41.524,41.524c-22.937,0-41.532-18.587-41.532-41.524C266.593,118.614,285.188,100.027,308.125,100.027z    M203.882,100.027c22.937,0,41.524,18.587,41.524,41.524c0,22.937-18.588,41.524-41.524,41.524s-41.524-18.587-41.524-41.524   C162.357,118.614,180.945,100.027,203.882,100.027z M159.234,385.321c12.074-21.394,18.395-51.228,18.366-80.021   c0.015-22.405-3.788-44.19-11.077-60.791h0.008l11.077-4.844c8.168,18.698,12.082,41.879,12.088,65.636   c-0.022,30.528-6.476,61.988-19.917,85.958L159.234,385.321z M244.054,437.051c-4.076,0-7.385-3.308-7.385-7.384   c-0.036-3.02-0.819-4.785-2.082-6.469c-1.27-1.647-3.249-3.116-5.539-4.246c-3.301-1.662-7.066-2.459-8.986-2.777v21.135   c0,4.077-3.302,7.378-7.385,7.378c-4.076,0-7.377-3.301-7.377-7.378v-21.127c-0.642,0.096-1.455,0.244-2.438,0.472   c-2.326,0.539-5.346,1.528-7.842,2.991c-1.683,0.975-3.109,2.126-4.128,3.397c-1.336,1.728-2.164,3.508-2.208,6.624   c0,4.076-3.301,7.384-7.377,7.384c-4.077,0-7.385-3.308-7.385-7.384c-0.037-6.344,2.208-11.912,5.48-15.9   c3.264-4.025,7.303-6.609,11.07-8.389c7.539-3.5,14.326-4.018,14.806-4.091l0.318-0.023h14.178l0.303,0.023   c0.266,0.03,2.541,0.228,5.804,1.004c3.279,0.775,7.554,2.097,11.867,4.586c2.858,1.662,5.76,3.87,8.204,6.89   c3.272,3.988,5.524,9.556,5.48,15.9C251.432,433.742,248.131,437.051,244.054,437.051z M256.003,200.304l-21.142-12.923   c0,0,8.219-11.742,21.142-12.916c12.916,1.174,21.142,12.916,21.142,12.916L256.003,200.304z M334.178,437.051   c-4.077,0-7.378-3.308-7.378-7.384c-0.037-3.02-0.827-4.785-2.082-6.469c-1.27-1.647-3.249-3.116-5.538-4.246   c-3.301-1.662-7.075-2.459-8.987-2.777v21.135c0,4.077-3.308,7.378-7.385,7.378c-4.076,0-7.384-3.301-7.384-7.378v-21.127   c-0.635,0.096-1.447,0.244-2.437,0.472c-2.318,0.539-5.339,1.528-7.842,2.991c-1.676,0.975-3.102,2.126-4.12,3.397   c-1.345,1.728-2.164,3.508-2.208,6.624c0,4.076-3.301,7.384-7.385,7.384c-4.076,0-7.378-3.308-7.378-7.384   c-0.044-6.344,2.208-11.912,5.48-15.9c3.264-4.025,7.303-6.609,11.062-8.389c7.548-3.5,14.334-4.018,14.814-4.091l0.303-0.023   h14.185l0.303,0.023c0.266,0.03,2.54,0.228,5.812,1.004c3.272,0.775,7.555,2.097,11.868,4.586c2.865,1.662,5.76,3.87,8.204,6.89   c3.272,3.988,5.516,9.556,5.48,15.9C341.562,433.742,338.254,437.051,334.178,437.051z M342.212,391.258   c-13.44-23.971-19.894-55.43-19.924-85.958c0.015-23.757,3.928-46.937,12.088-65.636h0.008l11.078,4.844   c-7.281,16.601-11.085,38.386-11.07,60.791c-0.03,28.793,6.292,58.627,18.366,80.021L342.212,391.258z"
   id="path8" />
</g>
<path
   style="fill:#002854;fill-opacity:0.89999998;stroke-width:1.07672"
   d="m 384.92598,798.71343 c -40.37287,-4.32363 -67.99854,-23.52436 -81.02895,-56.31774 -2.85179,-7.17705 -6.14784,-21.24585 -6.23264,-26.60332 -0.0458,-2.89039 -0.13349,-2.84022 -2.27461,1.3005 -6.50541,12.58085 -16.14324,16.38718 -27.35124,10.802 -6.97186,-3.47422 -38.08335,-34.08408 -53.68383,-52.81825 -29.07794,-34.91888 -51.23112,-76.3749 -60.83797,-113.84826 -11.12409,-43.39162 -10.77212,-86.49142 1.06958,-130.9728 8.31071,-31.21782 24.96217,-67.07504 43.62302,-93.93771 l 5.71807,-8.23128 -4.66704,-10.61125 c -22.14606,-50.35264 -25.24919,-101.49059 -9.07234,-149.50762 7.20178,-21.37673 21.57857,-49.07953 35.05754,-67.55274 l 3.72356,-5.103209 -2.68491,-5.675425 c -4.35687,-9.209661 -6.09579,-21.359729 -6.09579,-42.591927 0,-15.851453 1.65293,-42.9885325 2.68845,-44.1377997 0.16034,-0.1779519 4.34512,2.0556851 9.29952,4.9636377 29.67048,17.414914 75.43124,40.840311 101.06721,51.73732 26.22539,11.147556 51.80422,18.454354 64.60296,18.454354 25.55134,0 82.94221,-24.011333 151.63718,-63.442344 12.63329,-7.2515259 23.12345,-13.0229398 23.31146,-12.8253639 1.27211,1.3367891 3.13064,28.5465079 3.11339,45.5813019 -0.0222,21.917953 -1.45413,31.963719 -5.85069,41.04581 -1.25115,2.584532 -2.11215,5.066022 -1.91334,5.514421 0.19882,0.448401 4.33547,6.756354 9.19256,14.017674 16.91952,25.29455 27.72737,48.66686 34.22452,74.0116 5.1384,20.04436 6.32687,31.64631 5.60442,54.71063 -0.86786,27.70712 -4.94341,46.31325 -16.46785,75.18106 l -5.86171,14.68309 5.49629,7.92795 c 46.48558,67.05176 63.80507,143.45104 48.87152,215.58066 -9.43052,45.54972 -34.40431,92.43565 -71.87716,134.94249 -13.1485,14.91483 -38.45945,39.56324 -43.20212,42.07126 -1.83868,0.97233 -5.96363,1.77548 -9.30075,1.81092 -8.11351,0.0861 -13.75649,-3.59011 -17.45475,-11.37132 l -2.67465,-5.62753 -0.73464,5.83947 c -6.53095,51.9133 -45.22686,82.26487 -103.96025,81.5424 -6.21803,-0.0765 -13.00135,-0.32068 -15.07402,-0.54266 z m -44.22818,-107.00621 3.31297,-3.31298 v -18.7597 c 0,-10.31785 0.25755,-18.75971 0.57233,-18.75971 2.40784,0 14.64386,5.00703 17.46379,7.14627 3.72811,2.82818 6.72448,7.64921 6.73435,10.83526 0.003,1.06574 0.51756,3.77988 1.14279,6.03141 2.28027,8.21149 12.98934,11.02505 19.561,5.13918 3.41624,-3.05973 3.5125,-3.38223 3.38231,-11.3312 -0.43594,-26.61536 -26.87424,-43.84464 -64.92827,-42.31235 -31.83687,1.28195 -51.68377,14.72536 -55.96998,37.91158 -2.16283,11.69985 2.06392,18.88133 11.11285,18.88133 7.42618,0 11.58047,-4.45396 12.75741,-13.6777 0.31761,-2.4891 1.61318,-5.98015 2.87905,-7.75789 2.26579,-3.18202 12.78152,-8.96667 18.64365,-10.25579 l 2.96096,-0.65112 v 18.43235 18.43236 l 3.66084,3.66083 c 3.08414,3.08415 4.42802,3.66084 8.53091,3.66084 4.00261,0 5.46016,-0.59011 8.18304,-3.31297 z m 138.21222,2.14451 c 5.34478,-2.43526 6.15055,-5.72725 6.15055,-25.12854 v -17.88938 l 2.96096,0.64946 c 1.62854,0.35721 6.11037,2.1834 9.95963,4.0582 7.92346,3.85917 11.84387,8.62189 11.84387,14.38859 0,7.8077 5.12256,13.24625 12.47661,13.24625 9.0724,0 13.44247,-7.26515 11.30973,-18.80219 -3.10384,-16.79022 -14.40908,-28.33046 -33.93071,-34.63605 -11.79493,-3.80982 -31.64778,-4.72904 -44.84718,-2.07647 -19.0752,3.83338 -34.71685,14.82804 -39.57756,27.81944 -6.33386,16.92877 -2.72137,27.69527 9.29259,27.69527 6.51005,0 10.59572,-4.099 11.59513,-11.63302 0.91501,-6.89762 3.56831,-11.26814 8.87423,-14.61762 3.23515,-2.04226 13.84285,-6.05084 16.01201,-6.05084 0.18862,0 0.36011,8.11575 0.38109,18.035 0.0407,19.26854 0.63158,21.92943 5.46394,24.60779 3.15516,1.74878 8.59858,1.89989 12.03511,0.33411 z M 273.45788,596.28214 c 24.72635,-56.44689 30.3267,-130.95502 14.48723,-192.74082 -3.43714,-13.40742 -9.25975,-29.3825 -10.70934,-29.3825 -0.51635,0 -4.65651,1.69421 -9.20035,3.76491 -6.60703,3.01091 -8.13923,4.14297 -7.65075,5.65275 0.33593,1.03832 2.32662,6.84659 4.42373,12.90727 8.07253,23.32967 11.80269,49.28006 11.7262,81.57816 -0.10326,43.59806 -7.47148,79.79267 -23.07084,113.32967 l -5.1359,11.04164 8.27214,4.82897 c 8.08675,4.72075 8.31129,4.7821 10.01879,2.73713 0.96067,-1.15051 4.03825,-7.32324 6.83909,-13.71718 z m 270.54634,10.55819 7.79965,-4.50506 -3.28299,-6.50356 C 532.09745,563.29709 523.536,522.8845 523.45716,477.52355 c -0.0557,-32.01423 3.66737,-57.72592 11.73444,-81.0398 2.09711,-6.06068 4.0878,-11.86895 4.42373,-12.90727 0.48848,-1.50978 -1.04372,-2.64184 -7.65075,-5.65275 -4.54384,-2.0707 -8.684,-3.76491 -9.20035,-3.76491 -1.40983,0 -7.32344,16.06065 -10.87668,29.53972 -6.27278,23.79558 -7.88214,38.68692 -7.9204,73.28666 -0.0433,39.15156 2.41653,57.89763 11.81001,90.00316 5.55463,18.98487 17.40844,46.02549 19.63646,44.79415 0.43503,-0.24042 4.30079,-2.46439 8.5906,-4.94218 z M 415.83784,304.08968 c 8.75891,-5.37517 16.38944,-10.22426 16.95674,-10.77574 1.85703,-1.80525 -10.07223,-12.62746 -18.55988,-16.83753 -10.4737,-5.19518 -17.29522,-5.32282 -27.56753,-0.51583 -7.11705,3.33048 -20.45602,14.59752 -19.75865,16.68961 0.24294,0.72882 30.75465,20.3984 32.77858,21.13092 0.124,0.0449 7.39183,-4.31626 16.15074,-9.69143 z m -79.949,-19.95658 c 33.7885,-8.71648 54.65239,-44.54793 45.95831,-78.92835 -5.5425,-21.91761 -20.4271,-38.09039 -42.09569,-45.73882 -8.07654,-2.8508 -10.64555,-3.24919 -21.04352,-3.26331 -19.2527,-0.0262 -32.60048,5.50391 -46.41944,19.23187 -12.53641,12.45384 -18.72188,27.36274 -18.72188,45.12553 0,12.11708 1.4765,18.79925 6.46276,29.24838 11.19936,23.46922 36.1904,38.21569 61.86215,36.50301 4.11974,-0.27484 10.41853,-1.25509 13.99731,-2.17831 z m 163.51431,-0.0645 c 17.35489,-5.09811 32.84991,-18.10176 40.39186,-33.89746 5.16045,-10.80784 6.63837,-17.4003 6.63837,-29.61113 0,-17.75217 -6.18058,-32.65527 -18.72188,-45.14366 -8.73297,-8.69613 -14.61993,-12.43601 -25.71136,-16.33396 -6.5426,-2.29932 -9.76688,-2.74631 -20.16972,-2.7962 -10.80918,-0.0518 -13.46152,0.31572 -20.87769,2.89314 -11.47198,3.98698 -17.11541,7.47648 -25.51527,15.77685 -31.07272,30.70468 -23.35078,83.63771 15.14501,103.81743 6.48505,3.39951 15.26334,6.22516 23.17258,7.45905 5.23964,0.81741 19.63284,-0.39699 25.6481,-2.16402 z"
   id="path936"
   transform="scale(0.64)" /></svg>
