<?xml version="1.0" encoding="UTF-8" standalone="no"?>
<!-- Uploaded to: SVG Repo, www.svgrepo.com, Generator: SVG Repo Mixer Tools -->

<svg
   height="800px"
   width="800px"
   version="1.1"
   id="Capa_1"
   viewBox="0 0 239.749 239.749"
   xml:space="preserve"
   sodipodi:docname="stock-chart.svg"
   inkscape:version="1.2.2 (b0a8486541, 2022-12-01)"
   xmlns:inkscape="http://www.inkscape.org/namespaces/inkscape"
   xmlns:sodipodi="http://sodipodi.sourceforge.net/DTD/sodipodi-0.dtd"
   xmlns="http://www.w3.org/2000/svg"
   xmlns:svg="http://www.w3.org/2000/svg"><defs
   id="defs9" /><sodipodi:namedview
   id="namedview7"
   pagecolor="#ffffff"
   bordercolor="#000000"
   borderopacity="0.25"
   inkscape:showpageshadow="2"
   inkscape:pageopacity="0.0"
   inkscape:pagecheckerboard="0"
   inkscape:deskcolor="#d1d1d1"
   showgrid="false"
   inkscape:zoom="0.92875"
   inkscape:cx="401.07672"
   inkscape:cy="401.07672"
   inkscape:window-width="1920"
   inkscape:window-height="1052"
   inkscape:window-x="0"
   inkscape:window-y="0"
   inkscape:window-maximized="1"
   inkscape:current-layer="Capa_1" />
<g
   id="g4">
	<path
   style="fill:#010002;"
   d="M5.081,26.555c-2.768,1.784-5.08,4.384-5.08,8.104v150.047c0,0-0.598,30.965,29.121,30.965h189.198   c6.005,0,14.762-1.686,18.047-5.45c1.876-2.154,3.383-4.901,3.383-8.18c0-3.334-1.556-6.391-3.47-8.893   c-3.263-4.264-11.955-6.619-17.96-6.636l-167.757-0.528c-6.01-0.022-15.072,0.761-18.52-2.094   c-1.653-1.365-2.921-3.612-2.921-7.267v-24.411c0-6.005,4.645-12.341,10.378-14.136l37.899-11.906   c5.733-1.8,14.212-0.25,18.939,3.459l43.235,33.923c4.727,3.709,12.102,3.378,16.475-0.745l74.058-69.761   c4.373-4.123,8.001-12.33,8.099-18.335l0.402-23.693c0.103-6.005-3.334-7.506-7.669-3.345l-73.998,70.942   c-4.335,4.161-11.754,4.618-16.567,1.023l-42.55-31.786c-4.814-3.595-13.309-4.895-18.982-2.91L39.706,98.682   c-5.668,1.991-10.291-1.267-10.312-7.277l-0.218-47.108c-0.027-6.005-1.991-14.832-6.103-18.031   C18.961,23.063,9.726,23.563,5.081,26.555z"
   id="path2" />
</g>
<path
   style="fill:#ffffff;fill-opacity:0.9;stroke-width:1.07672"
   d="M 77.695556,717.5859 C 43.580831,711.82103 18.373243,689.51577 7.1714372,655.1817 0.69546864,635.33254 1.2061951,658.12318 0.83901717,372.6041 0.46336097,80.492274 -0.26925803,106.47353 8.6222257,96.58406 17.58779,86.612195 31.767813,81.336934 49.6847,81.307974 c 12.27756,-0.01985 21.826323,2.701933 27.990794,7.97849 5.806622,4.970252 11.728671,16.521026 15.090551,29.433646 3.717586,14.27885 4.537157,35.94502 4.614911,121.99967 0.05247,58.06921 0.310707,69.28323 1.703467,73.97317 3.191957,10.74849 11.273067,16.752 22.584487,16.77818 5.67471,0.0131 14.70894,-2.87874 74.2934,-23.78141 37.30821,-13.08799 70.01346,-24.41042 72.67834,-25.16096 2.66487,-0.75053 9.69044,-1.3202 15.61238,-1.26593 12.79249,0.11722 24.54562,2.90074 34.28735,8.12035 3.64532,1.95316 38.57703,27.4506 77.62602,56.66098 39.04899,29.21038 72.78682,54.2389 74.97296,55.61896 6.90385,4.35821 15.40481,6.21078 25.78406,5.61898 17.14586,-0.97762 15.36029,0.40285 81.45108,-62.9719 31.97678,-30.66266 89.22533,-85.54842 127.219,-121.96834 37.99367,-36.41992 70.82862,-67.13832 72.96654,-68.26312 4.70918,-2.47756 9.64911,-2.49639 12.35557,-0.0471 4.35655,3.94263 4.60029,7.41636 3.92267,55.90692 -0.71248,50.98549 -0.9899,53.36482 -8.2577,70.82286 -7.86215,18.88573 -3.62463,14.55844 -140.69851,143.67916 -69.60029,65.562 -128.05443,120.31656 -129.8981,121.67677 -9.9707,7.35615 -27.61964,9.51228 -39.53713,4.83016 -4.42948,-1.74024 -24.78114,-17.13895 -80.7537,-61.1008 -41.15747,-32.32583 -77.25438,-60.19813 -80.21535,-61.93846 -2.96097,-1.74032 -9.25976,-4.46292 -13.99731,-6.0502 -7.75134,-2.59703 -10.1768,-2.88751 -24.22611,-2.90138 l -15.61238,-0.0154 -67.26097,21.30834 c -36.99354,11.71958 -69.41827,22.57259 -72.05498,24.1178 -11.70773,6.86119 -22.468597,22.40526 -24.943537,36.03094 -0.702054,3.86513 -1.002479,23.45579 -0.80081,52.22073 0.318424,45.41829 0.355908,46.10696 2.797953,51.40518 4.264014,9.25114 9.327264,13.07301 20.674194,15.60542 4.50209,1.00478 50.19518,1.44509 190.57873,1.83649 101.56124,0.28315 240.61911,0.89536 309.0175,1.36047 136.59985,0.92887 127.79763,0.46874 146.43114,7.65458 10.97015,4.23054 18.53391,9.93833 24.46634,18.46289 9.61134,13.81093 11.22157,27.95841 4.6918,41.22224 -6.39809,12.99638 -15.8995,19.72188 -35.53226,25.15126 l -10.31274,2.85195 -333.24361,0.1485 c -183.28398,0.0817 -335.588817,-0.2478 -338.455184,-0.73218 z"
   id="path861"
   transform="scale(0.29968625)" /><path
   style="fill:#000000;fill-opacity:0.9;stroke-width:1.07672"
   d="M 74.912717,716.46055 C 57.146452,712.97488 37.917329,702.02886 26.894636,689.12666 18.923756,679.79665 11.945007,667.08665 7.582942,653.95538 3.5808687,641.9078 3.5187344,641.45879 2.5401389,617.51401 0.96520775,578.97779 1.8761184,109.68962 3.535253,104.84545 c 1.6567816,-4.83729 9.982516,-12.765249 17.299644,-16.473119 8.441123,-4.27744 16.699957,-6.003556 28.724832,-6.003556 20.052087,0 28.244697,4.444113 35.78986,19.414345 9.866933,19.57682 10.696419,29.22005 11.483638,133.50346 0.451516,59.81262 0.868223,75.86318 2.073553,79.86819 3.36462,11.17977 10.481,16.41809 22.22377,16.35875 8.33049,-0.0421 9.55377,-0.43091 90.44415,-28.74764 l 58.68102,-20.54205 12.92059,0.0252 c 14.13027,0.0276 22.78368,1.77846 32.22461,6.52036 6.62742,3.32875 24.08316,15.93858 92.13609,66.5581 75.34407,56.04285 69.00404,52.21412 86.44409,52.20356 12.95029,-0.008 16.46256,-1.09964 25.56438,-7.9468 9.29897,-6.99551 16.08006,-13.37448 115.16169,-108.33256 133.48179,-127.9266 142.54611,-136.39114 147.61082,-137.84368 4.30583,-1.2349 8.42119,0.48436 10.36679,4.3309 1.67551,3.31253 1.9262,74.47025 0.33002,93.67429 -1.69705,20.41768 -8.25475,36.39501 -20.8205,50.72755 -11.45241,13.06266 -58.76926,58.15983 -199.40288,190.04871 -57.91826,54.31683 -59.55993,55.7584 -66.07091,58.01743 -7.17244,2.48854 -18.20341,3.21419 -24.80088,1.63148 -7.32262,-1.75667 -13.6076,-6.31222 -77.92761,-56.48438 -82.93063,-64.68918 -88.29275,-68.63818 -98.80193,-72.76397 -8.60896,-3.37979 -9.98845,-3.59561 -25.90524,-4.05278 l -16.81207,-0.4829 -36.48538,11.51598 c -20.06696,6.3338 -51.87933,16.61014 -70.69416,22.83632 -33.68215,11.14607 -34.29891,11.40273 -40.06419,16.67186 -7.65465,6.99592 -14.00874,16.64347 -16.69955,25.35532 -2.025978,6.55935 -2.162664,9.95552 -2.151566,53.45888 0.0066,25.55 0.313599,48.28028 0.682403,50.51175 0.368804,2.23145 2.18043,6.59215 4.025833,9.69044 2.71364,4.55598 4.58937,6.24953 9.8086,8.8559 8.24891,4.11932 6.57834,4.04355 98.5265,4.46928 344.81706,1.59654 514.28802,2.7427 527.09332,3.56482 29.53006,1.89588 47.94963,12.12414 57.779,32.08427 3.17725,6.45191 3.55298,8.18537 3.55298,16.39185 0,7.68726 -0.46499,10.16887 -2.86451,15.28748 -6.02797,12.8588 -16.5202,20.48277 -35.93471,26.11123 l -9.55991,2.77151 -334.90523,-0.11797 c -184.41798,-0.065 -337.046014,-0.53798 -339.669493,-1.0527 z"
   id="path927"
   transform="scale(0.29968625)" /></svg>
